<svg xmlns="http://www.w3.org/2000/svg" width="1200" height="800" viewBox="0 0 1200 800">
  <rect width="1200" height="800" fill="none"/>

  <g opacity="0.75" stroke="#18c8ff" stroke-width="2" fill="none">
    <path d="M80 100 H260 V190 H420"/>
    <path d="M120 220 H340 V320 H520"/>
    <path d="M70 420 H260 V520 H460"/>
    <path d="M180 650 H380 V570 H620"/>
    <path d="M520 120 H720 V230 H900"/>
    <path d="M680 360 H920 V470 H1080"/>
    <path d="M760 620 H980 V710 H1140"/>
  </g>

  <g fill="#18c8ff" opacity="0.9">
    <circle cx="80" cy="100" r="6"/>
    <circle cx="260" cy="190" r="6"/>
    <circle cx="420" cy="190" r="6"/>
    <circle cx="120" cy="220" r="6"/>
    <circle cx="340" cy="320" r="6"/>
    <circle cx="520" cy="320" r="6"/>
    <circle cx="70" cy="420" r="6"/>
    <circle cx="260" cy="520" r="6"/>
    <circle cx="460" cy="520" r="6"/>
    <circle cx="180" cy="650" r="6"/>
    <circle cx="380" cy="570" r="6"/>
    <circle cx="620" cy="570" r="6"/>
    <circle cx="520" cy="120" r="6"/>
    <circle cx="720" cy="230" r="6"/>
    <circle cx="900" cy="230" r="6"/>
    <circle cx="680" cy="360" r="6"/>
    <circle cx="920" cy="470" r="6"/>
    <circle cx="1080" cy="470" r="6"/>
  </g>

  <g opacity="0.2" stroke="#7dd3fc" stroke-width="1">
    <path d="M0 80 H1200"/>
    <path d="M0 240 H1200"/>
    <path d="M0 400 H1200"/>
    <path d="M0 560 H1200"/>
    <path d="M0 720 H1200"/>
    <path d="M120 0 V800"/>
    <path d="M300 0 V800"/>
    <path d="M480 0 V800"/>
    <path d="M660 0 V800"/>
    <path d="M840 0 V800"/>
    <path d="M1020 0 V800"/>
  </g>
</svg>
