<svg xmlns="http://www.w3.org/2000/svg" width="900" height="560" viewBox="0 0 900 560" role="img" aria-label="Inside an IC silicon die">
<!-- Free original educational illustration created for beginner electronics learning. No external image source required. -->
<rect width="900" height="560" fill="#f8fafc"/>
<rect x="40" y="35" width="820" height="490" rx="32" fill="white" stroke="#d7dee8" stroke-width="3"/>
<text x="450" y="78" font-family="Arial" font-size="34" font-weight="700" text-anchor="middle" fill="#111827">Inside an IC</text>
<text x="450" y="112" font-family="Arial" font-size="20" text-anchor="middle" fill="#64748b">Tiny circuits are built on a silicon die</text>
<rect x="190" y="135" width="520" height="280" rx="18" fill="#dbeafe" stroke="#2563eb" stroke-width="5"/>
<rect x="240" y="165" width="42" height="26" rx="4" fill="#93c5fd" opacity="0.45"/><rect x="300" y="165" width="42" height="26" rx="4" fill="#93c5fd" opacity="0.5"/><rect x="360" y="165" width="42" height="26" rx="4" fill="#93c5fd" opacity="0.55"/><rect x="420" y="165" width="42" height="26" rx="4" fill="#93c5fd" opacity="0.6000000000000001"/><rect x="480" y="165" width="42" height="26" rx="4" fill="#93c5fd" opacity="0.45"/><rect x="540" y="165" width="42" height="26" rx="4" fill="#93c5fd" opacity="0.5"/><rect x="600" y="165" width="42" height="26" rx="4" fill="#93c5fd" opacity="0.55"/><rect x="240" y="210" width="42" height="26" rx="4" fill="#93c5fd" opacity="0.5"/><rect x="300" y="210" width="42" height="26" rx="4" fill="#93c5fd" opacity="0.55"/><rect x="360" y="210" width="42" height="26" rx="4" fill="#93c5fd" opacity="0.6000000000000001"/><rect x="420" y="210" width="42" height="26" rx="4" fill="#93c5fd" opacity="0.45"/><rect x="480" y="210" width="42" height="26" rx="4" fill="#93c5fd" opacity="0.5"/><rect x="540" y="210" width="42" height="26" rx="4" fill="#93c5fd" opacity="0.55"/><rect x="600" y="210" width="42" height="26" rx="4" fill="#93c5fd" opacity="0.6000000000000001"/><rect x="240" y="255" width="42" height="26" rx="4" fill="#93c5fd" opacity="0.55"/><rect x="300" y="255" width="42" height="26" rx="4" fill="#93c5fd" opacity="0.6000000000000001"/><rect x="360" y="255" width="42" height="26" rx="4" fill="#93c5fd" opacity="0.45"/><rect x="420" y="255" width="42" height="26" rx="4" fill="#93c5fd" opacity="0.5"/><rect x="480" y="255" width="42" height="26" rx="4" fill="#93c5fd" opacity="0.55"/><rect x="540" y="255" width="42" height="26" rx="4" fill="#93c5fd" opacity="0.6000000000000001"/><rect x="600" y="255" width="42" height="26" rx="4" fill="#93c5fd" opacity="0.45"/><rect x="240" y="300" width="42" height="26" rx="4" fill="#93c5fd" opacity="0.6000000000000001"/><rect x="300" y="300" width="42" height="26" rx="4" fill="#93c5fd" opacity="0.45"/><rect x="360" y="300" width="42" height="26" rx="4" fill="#93c5fd" opacity="0.5"/><rect x="420" y="300" width="42" height="26" rx="4" fill="#93c5fd" opacity="0.55"/><rect x="480" y="300" width="42" height="26" rx="4" fill="#93c5fd" opacity="0.6000000000000001"/><rect x="540" y="300" width="42" height="26" rx="4" fill="#93c5fd" opacity="0.45"/><rect x="600" y="300" width="42" height="26" rx="4" fill="#93c5fd" opacity="0.5"/><rect x="240" y="345" width="42" height="26" rx="4" fill="#93c5fd" opacity="0.45"/><rect x="300" y="345" width="42" height="26" rx="4" fill="#93c5fd" opacity="0.5"/><rect x="360" y="345" width="42" height="26" rx="4" fill="#93c5fd" opacity="0.55"/><rect x="420" y="345" width="42" height="26" rx="4" fill="#93c5fd" opacity="0.6000000000000001"/><rect x="480" y="345" width="42" height="26" rx="4" fill="#93c5fd" opacity="0.45"/><rect x="540" y="345" width="42" height="26" rx="4" fill="#93c5fd" opacity="0.5"/><rect x="600" y="345" width="42" height="26" rx="4" fill="#93c5fd" opacity="0.55"/>
<path d="M230 350 C330 280 400 395 510 330 S650 280 690 370" fill="none" stroke="#1d4ed8" stroke-width="6"/>
<line x1="450" y1="295" x2="120" y2="460" stroke="#f59e0b" stroke-width="4"/><line x1="450" y1="295" x2="200" y2="460" stroke="#f59e0b" stroke-width="4"/><line x1="450" y1="295" x2="280" y2="460" stroke="#f59e0b" stroke-width="4"/><line x1="450" y1="295" x2="360" y2="460" stroke="#f59e0b" stroke-width="4"/><line x1="450" y1="295" x2="440" y2="460" stroke="#f59e0b" stroke-width="4"/><line x1="450" y1="295" x2="520" y2="460" stroke="#f59e0b" stroke-width="4"/><line x1="450" y1="295" x2="600" y2="460" stroke="#f59e0b" stroke-width="4"/><line x1="450" y1="295" x2="680" y2="460" stroke="#f59e0b" stroke-width="4"/><line x1="450" y1="295" x2="760" y2="460" stroke="#f59e0b" stroke-width="4"/>
<rect x="100" y="455" width="700" height="40" rx="20" fill="#fff7ed"/>
<text x="450" y="482" font-family="Arial" font-size="20" text-anchor="middle" fill="#9a3412">The black package protects this tiny silicon circuit.</text>
</svg>