<svg xmlns="http://www.w3.org/2000/svg" width="900" height="560" viewBox="0 0 900 560" role="img" aria-label="LM741 Op-Amp illustration">
  <!-- Free original educational illustration created for beginner electronics learning. No external image source required. -->
  <rect width="900" height="560" fill="#f8fafc"/>
  <rect x="40" y="35" width="820" height="490" rx="32" fill="white" stroke="#d7dee8" stroke-width="3"/>
  <text x="450" y="78" font-family="Arial, sans-serif" font-size="34" font-weight="700" text-anchor="middle" fill="#111827">LM741 Op-Amp</text>
  <text x="450" y="112" font-family="Arial, sans-serif" font-size="20" text-anchor="middle" fill="#64748b">Classic operational amplifier for learning</text>
  <line x1="225" y1="172.0" x2="285" y2="172.0" stroke="#9aa4b2" stroke-width="18" stroke-linecap="round"/><text x="200" y="179.0" font-size="22" text-anchor="end" fill="#374151">1</text><line x1="225" y1="234.0" x2="285" y2="234.0" stroke="#9aa4b2" stroke-width="18" stroke-linecap="round"/><text x="200" y="241.0" font-size="22" text-anchor="end" fill="#374151">2</text><line x1="225" y1="296.0" x2="285" y2="296.0" stroke="#9aa4b2" stroke-width="18" stroke-linecap="round"/><text x="200" y="303.0" font-size="22" text-anchor="end" fill="#374151">3</text><line x1="225" y1="358.0" x2="285" y2="358.0" stroke="#9aa4b2" stroke-width="18" stroke-linecap="round"/><text x="200" y="365.0" font-size="22" text-anchor="end" fill="#374151">4</text><line x1="615" y1="172.0" x2="675" y2="172.0" stroke="#9aa4b2" stroke-width="18" stroke-linecap="round"/><text x="700" y="179.0" font-size="22" text-anchor="start" fill="#374151">8</text><line x1="615" y1="234.0" x2="675" y2="234.0" stroke="#9aa4b2" stroke-width="18" stroke-linecap="round"/><text x="700" y="241.0" font-size="22" text-anchor="start" fill="#374151">7</text><line x1="615" y1="296.0" x2="675" y2="296.0" stroke="#9aa4b2" stroke-width="18" stroke-linecap="round"/><text x="700" y="303.0" font-size="22" text-anchor="start" fill="#374151">6</text><line x1="615" y1="358.0" x2="675" y2="358.0" stroke="#9aa4b2" stroke-width="18" stroke-linecap="round"/><text x="700" y="365.0" font-size="22" text-anchor="start" fill="#374151">5</text>
  <rect x="285" y="110" width="330" height="310" rx="28" fill="#20242c" stroke="#111827" stroke-width="4"/>
  <path d="M 420 110 A 30 30 0 0 0 480 110" fill="#f8fafc"/>
  <circle cx="331" cy="158" r="14" fill="#0ea5e9"/>
  <text x="450" y="250" font-family="Arial, sans-serif" font-size="44" font-weight="700" text-anchor="middle" fill="white">LM741</text>
  <text x="450" y="294" font-family="Arial, sans-serif" font-size="26" text-anchor="middle" fill="#cbd5e1">DIP</text>
  <text x="450" y="366" font-family="Arial, sans-serif" font-size="22" text-anchor="middle" fill="#e5e7eb">Pin 1 starts at the dot</text>
  <line x1="331" y1="159" x2="245" y2="85" stroke="#0ea5e9" stroke-width="5" stroke-linecap="round"/>
  <text x="238" y="82" font-family="Arial, sans-serif" font-size="20" font-weight="700" text-anchor="end" fill="#374151">Pin 1 marker</text>
  <rect x="160" y="445" width="580" height="42" rx="21" fill="#eef2ff"/>
  <text x="450" y="473" font-family="Arial, sans-serif" font-size="20" text-anchor="middle" fill="#3730a3">Beginner note: always check the datasheet before connecting an IC.</text>
</svg>