<svg xmlns="http://www.w3.org/2000/svg" width="900" height="560" viewBox="0 0 900 560" role="img" aria-label="MAX232 illustration">
  <!-- Free original educational illustration created for beginner electronics learning. No external image source required. -->
  <rect width="900" height="560" fill="#f8fafc"/>
  <rect x="40" y="35" width="820" height="490" rx="32" fill="white" stroke="#d7dee8" stroke-width="3"/>
  <text x="450" y="78" font-family="Arial, sans-serif" font-size="34" font-weight="700" text-anchor="middle" fill="#111827">MAX232</text>
  <text x="450" y="112" font-family="Arial, sans-serif" font-size="20" text-anchor="middle" fill="#64748b">Communication IC for RS-232 serial signals</text>
  <line x1="225" y1="144.44444444444446" x2="285" y2="144.44444444444446" stroke="#9aa4b2" stroke-width="18" stroke-linecap="round"/><text x="200" y="151.44444444444446" font-size="22" text-anchor="end" fill="#374151">1</text><line x1="225" y1="178.88888888888889" x2="285" y2="178.88888888888889" stroke="#9aa4b2" stroke-width="18" stroke-linecap="round"/><text x="200" y="185.88888888888889" font-size="22" text-anchor="end" fill="#374151">2</text><line x1="225" y1="213.33333333333331" x2="285" y2="213.33333333333331" stroke="#9aa4b2" stroke-width="18" stroke-linecap="round"/><text x="200" y="220.33333333333331" font-size="22" text-anchor="end" fill="#374151">3</text><line x1="225" y1="247.77777777777777" x2="285" y2="247.77777777777777" stroke="#9aa4b2" stroke-width="18" stroke-linecap="round"/><text x="200" y="254.77777777777777" font-size="22" text-anchor="end" fill="#374151">4</text><line x1="225" y1="282.22222222222223" x2="285" y2="282.22222222222223" stroke="#9aa4b2" stroke-width="18" stroke-linecap="round"/><text x="200" y="289.22222222222223" font-size="22" text-anchor="end" fill="#374151">5</text><line x1="225" y1="316.66666666666663" x2="285" y2="316.66666666666663" stroke="#9aa4b2" stroke-width="18" stroke-linecap="round"/><text x="200" y="323.66666666666663" font-size="22" text-anchor="end" fill="#374151">6</text><line x1="225" y1="351.1111111111111" x2="285" y2="351.1111111111111" stroke="#9aa4b2" stroke-width="18" stroke-linecap="round"/><text x="200" y="358.1111111111111" font-size="22" text-anchor="end" fill="#374151">7</text><line x1="225" y1="385.55555555555554" x2="285" y2="385.55555555555554" stroke="#9aa4b2" stroke-width="18" stroke-linecap="round"/><text x="200" y="392.55555555555554" font-size="22" text-anchor="end" fill="#374151">8</text><line x1="615" y1="144.44444444444446" x2="675" y2="144.44444444444446" stroke="#9aa4b2" stroke-width="18" stroke-linecap="round"/><text x="700" y="151.44444444444446" font-size="22" text-anchor="start" fill="#374151">16</text><line x1="615" y1="178.88888888888889" x2="675" y2="178.88888888888889" stroke="#9aa4b2" stroke-width="18" stroke-linecap="round"/><text x="700" y="185.88888888888889" font-size="22" text-anchor="start" fill="#374151">15</text><line x1="615" y1="213.33333333333331" x2="675" y2="213.33333333333331" stroke="#9aa4b2" stroke-width="18" stroke-linecap="round"/><text x="700" y="220.33333333333331" font-size="22" text-anchor="start" fill="#374151">14</text><line x1="615" y1="247.77777777777777" x2="675" y2="247.77777777777777" stroke="#9aa4b2" stroke-width="18" stroke-linecap="round"/><text x="700" y="254.77777777777777" font-size="22" text-anchor="start" fill="#374151">13</text><line x1="615" y1="282.22222222222223" x2="675" y2="282.22222222222223" stroke="#9aa4b2" stroke-width="18" stroke-linecap="round"/><text x="700" y="289.22222222222223" font-size="22" text-anchor="start" fill="#374151">12</text><line x1="615" y1="316.66666666666663" x2="675" y2="316.66666666666663" stroke="#9aa4b2" stroke-width="18" stroke-linecap="round"/><text x="700" y="323.66666666666663" font-size="22" text-anchor="start" fill="#374151">11</text><line x1="615" y1="351.1111111111111" x2="675" y2="351.1111111111111" stroke="#9aa4b2" stroke-width="18" stroke-linecap="round"/><text x="700" y="358.1111111111111" font-size="22" text-anchor="start" fill="#374151">10</text><line x1="615" y1="385.55555555555554" x2="675" y2="385.55555555555554" stroke="#9aa4b2" stroke-width="18" stroke-linecap="round"/><text x="700" y="392.55555555555554" font-size="22" text-anchor="start" fill="#374151">9</text>
  <rect x="285" y="110" width="330" height="310" rx="28" fill="#20242c" stroke="#111827" stroke-width="4"/>
  <path d="M 420 110 A 30 30 0 0 0 480 110" fill="#f8fafc"/>
  <circle cx="331" cy="158" r="14" fill="#f97316"/>
  <text x="450" y="250" font-family="Arial, sans-serif" font-size="44" font-weight="700" text-anchor="middle" fill="white">MAX232</text>
  <text x="450" y="294" font-family="Arial, sans-serif" font-size="26" text-anchor="middle" fill="#cbd5e1">DIP</text>
  <text x="450" y="366" font-family="Arial, sans-serif" font-size="22" text-anchor="middle" fill="#e5e7eb">Pin 1 starts at the dot</text>
  <line x1="331" y1="159" x2="245" y2="85" stroke="#f97316" stroke-width="5" stroke-linecap="round"/>
  <text x="238" y="82" font-family="Arial, sans-serif" font-size="20" font-weight="700" text-anchor="end" fill="#374151">Pin 1 marker</text>
  <rect x="160" y="445" width="580" height="42" rx="21" fill="#eef2ff"/>
  <text x="450" y="473" font-family="Arial, sans-serif" font-size="20" text-anchor="middle" fill="#3730a3">Beginner note: always check the datasheet before connecting an IC.</text>
</svg>