<svg xmlns="http://www.w3.org/2000/svg" width="900" height="560" viewBox="0 0 900 560" role="img" aria-label="PIC16F877A illustration">
  <!-- Free original educational illustration created for beginner electronics learning. No external image source required. -->
  <rect width="900" height="560" fill="#f8fafc"/>
  <rect x="40" y="35" width="820" height="490" rx="32" fill="white" stroke="#d7dee8" stroke-width="3"/>
  <text x="450" y="78" font-family="Arial, sans-serif" font-size="34" font-weight="700" text-anchor="middle" fill="#111827">PIC16F877A</text>
  <text x="450" y="112" font-family="Arial, sans-serif" font-size="20" text-anchor="middle" fill="#64748b">Microcontroller for embedded control projects</text>
  <line x1="225" y1="124.76190476190476" x2="285" y2="124.76190476190476" stroke="#9aa4b2" stroke-width="18" stroke-linecap="round"/><text x="200" y="131.76190476190476" font-size="22" text-anchor="end" fill="#374151">1</text><line x1="225" y1="139.52380952380952" x2="285" y2="139.52380952380952" stroke="#9aa4b2" stroke-width="18" stroke-linecap="round"/><text x="200" y="146.52380952380952" font-size="22" text-anchor="end" fill="#374151">2</text><line x1="225" y1="154.28571428571428" x2="285" y2="154.28571428571428" stroke="#9aa4b2" stroke-width="18" stroke-linecap="round"/><text x="200" y="161.28571428571428" font-size="22" text-anchor="end" fill="#374151">3</text><line x1="225" y1="169.04761904761904" x2="285" y2="169.04761904761904" stroke="#9aa4b2" stroke-width="18" stroke-linecap="round"/><text x="200" y="176.04761904761904" font-size="22" text-anchor="end" fill="#374151">4</text><line x1="225" y1="183.8095238095238" x2="285" y2="183.8095238095238" stroke="#9aa4b2" stroke-width="18" stroke-linecap="round"/><text x="200" y="190.8095238095238" font-size="22" text-anchor="end" fill="#374151">5</text><line x1="225" y1="198.57142857142858" x2="285" y2="198.57142857142858" stroke="#9aa4b2" stroke-width="18" stroke-linecap="round"/><text x="200" y="205.57142857142858" font-size="22" text-anchor="end" fill="#374151">6</text><line x1="225" y1="213.33333333333334" x2="285" y2="213.33333333333334" stroke="#9aa4b2" stroke-width="18" stroke-linecap="round"/><text x="200" y="220.33333333333334" font-size="22" text-anchor="end" fill="#374151">7</text><line x1="225" y1="228.0952380952381" x2="285" y2="228.0952380952381" stroke="#9aa4b2" stroke-width="18" stroke-linecap="round"/><text x="200" y="235.0952380952381" font-size="22" text-anchor="end" fill="#374151">8</text><line x1="225" y1="242.85714285714286" x2="285" y2="242.85714285714286" stroke="#9aa4b2" stroke-width="18" stroke-linecap="round"/><text x="200" y="249.85714285714286" font-size="22" text-anchor="end" fill="#374151">9</text><line x1="225" y1="257.6190476190476" x2="285" y2="257.6190476190476" stroke="#9aa4b2" stroke-width="18" stroke-linecap="round"/><text x="200" y="264.6190476190476" font-size="22" text-anchor="end" fill="#374151">10</text><line x1="225" y1="272.3809523809524" x2="285" y2="272.3809523809524" stroke="#9aa4b2" stroke-width="18" stroke-linecap="round"/><text x="200" y="279.3809523809524" font-size="22" text-anchor="end" fill="#374151">11</text><line x1="225" y1="287.14285714285717" x2="285" y2="287.14285714285717" stroke="#9aa4b2" stroke-width="18" stroke-linecap="round"/><text x="200" y="294.14285714285717" font-size="22" text-anchor="end" fill="#374151">12</text><line x1="225" y1="301.9047619047619" x2="285" y2="301.9047619047619" stroke="#9aa4b2" stroke-width="18" stroke-linecap="round"/><text x="200" y="308.9047619047619" font-size="22" text-anchor="end" fill="#374151">13</text><line x1="225" y1="316.6666666666667" x2="285" y2="316.6666666666667" stroke="#9aa4b2" stroke-width="18" stroke-linecap="round"/><text x="200" y="323.6666666666667" font-size="22" text-anchor="end" fill="#374151">14</text><line x1="225" y1="331.42857142857144" x2="285" y2="331.42857142857144" stroke="#9aa4b2" stroke-width="18" stroke-linecap="round"/><text x="200" y="338.42857142857144" font-size="22" text-anchor="end" fill="#374151">15</text><line x1="225" y1="346.1904761904762" x2="285" y2="346.1904761904762" stroke="#9aa4b2" stroke-width="18" stroke-linecap="round"/><text x="200" y="353.1904761904762" font-size="22" text-anchor="end" fill="#374151">16</text><line x1="225" y1="360.95238095238096" x2="285" y2="360.95238095238096" stroke="#9aa4b2" stroke-width="18" stroke-linecap="round"/><text x="200" y="367.95238095238096" font-size="22" text-anchor="end" fill="#374151">17</text><line x1="225" y1="375.7142857142857" x2="285" y2="375.7142857142857" stroke="#9aa4b2" stroke-width="18" stroke-linecap="round"/><text x="200" y="382.7142857142857" font-size="22" text-anchor="end" fill="#374151">18</text><line x1="225" y1="390.4761904761905" x2="285" y2="390.4761904761905" stroke="#9aa4b2" stroke-width="18" stroke-linecap="round"/><text x="200" y="397.4761904761905" font-size="22" text-anchor="end" fill="#374151">19</text><line x1="225" y1="405.23809523809524" x2="285" y2="405.23809523809524" stroke="#9aa4b2" stroke-width="18" stroke-linecap="round"/><text x="200" y="412.23809523809524" font-size="22" text-anchor="end" fill="#374151">20</text><line x1="615" y1="124.76190476190476" x2="675" y2="124.76190476190476" stroke="#9aa4b2" stroke-width="18" stroke-linecap="round"/><text x="700" y="131.76190476190476" font-size="22" text-anchor="start" fill="#374151">40</text><line x1="615" y1="139.52380952380952" x2="675" y2="139.52380952380952" stroke="#9aa4b2" stroke-width="18" stroke-linecap="round"/><text x="700" y="146.52380952380952" font-size="22" text-anchor="start" fill="#374151">39</text><line x1="615" y1="154.28571428571428" x2="675" y2="154.28571428571428" stroke="#9aa4b2" stroke-width="18" stroke-linecap="round"/><text x="700" y="161.28571428571428" font-size="22" text-anchor="start" fill="#374151">38</text><line x1="615" y1="169.04761904761904" x2="675" y2="169.04761904761904" stroke="#9aa4b2" stroke-width="18" stroke-linecap="round"/><text x="700" y="176.04761904761904" font-size="22" text-anchor="start" fill="#374151">37</text><line x1="615" y1="183.8095238095238" x2="675" y2="183.8095238095238" stroke="#9aa4b2" stroke-width="18" stroke-linecap="round"/><text x="700" y="190.8095238095238" font-size="22" text-anchor="start" fill="#374151">36</text><line x1="615" y1="198.57142857142858" x2="675" y2="198.57142857142858" stroke="#9aa4b2" stroke-width="18" stroke-linecap="round"/><text x="700" y="205.57142857142858" font-size="22" text-anchor="start" fill="#374151">35</text><line x1="615" y1="213.33333333333334" x2="675" y2="213.33333333333334" stroke="#9aa4b2" stroke-width="18" stroke-linecap="round"/><text x="700" y="220.33333333333334" font-size="22" text-anchor="start" fill="#374151">34</text><line x1="615" y1="228.0952380952381" x2="675" y2="228.0952380952381" stroke="#9aa4b2" stroke-width="18" stroke-linecap="round"/><text x="700" y="235.0952380952381" font-size="22" text-anchor="start" fill="#374151">33</text><line x1="615" y1="242.85714285714286" x2="675" y2="242.85714285714286" stroke="#9aa4b2" stroke-width="18" stroke-linecap="round"/><text x="700" y="249.85714285714286" font-size="22" text-anchor="start" fill="#374151">32</text><line x1="615" y1="257.6190476190476" x2="675" y2="257.6190476190476" stroke="#9aa4b2" stroke-width="18" stroke-linecap="round"/><text x="700" y="264.6190476190476" font-size="22" text-anchor="start" fill="#374151">31</text><line x1="615" y1="272.3809523809524" x2="675" y2="272.3809523809524" stroke="#9aa4b2" stroke-width="18" stroke-linecap="round"/><text x="700" y="279.3809523809524" font-size="22" text-anchor="start" fill="#374151">30</text><line x1="615" y1="287.14285714285717" x2="675" y2="287.14285714285717" stroke="#9aa4b2" stroke-width="18" stroke-linecap="round"/><text x="700" y="294.14285714285717" font-size="22" text-anchor="start" fill="#374151">29</text><line x1="615" y1="301.9047619047619" x2="675" y2="301.9047619047619" stroke="#9aa4b2" stroke-width="18" stroke-linecap="round"/><text x="700" y="308.9047619047619" font-size="22" text-anchor="start" fill="#374151">28</text><line x1="615" y1="316.6666666666667" x2="675" y2="316.6666666666667" stroke="#9aa4b2" stroke-width="18" stroke-linecap="round"/><text x="700" y="323.6666666666667" font-size="22" text-anchor="start" fill="#374151">27</text><line x1="615" y1="331.42857142857144" x2="675" y2="331.42857142857144" stroke="#9aa4b2" stroke-width="18" stroke-linecap="round"/><text x="700" y="338.42857142857144" font-size="22" text-anchor="start" fill="#374151">26</text><line x1="615" y1="346.1904761904762" x2="675" y2="346.1904761904762" stroke="#9aa4b2" stroke-width="18" stroke-linecap="round"/><text x="700" y="353.1904761904762" font-size="22" text-anchor="start" fill="#374151">25</text><line x1="615" y1="360.95238095238096" x2="675" y2="360.95238095238096" stroke="#9aa4b2" stroke-width="18" stroke-linecap="round"/><text x="700" y="367.95238095238096" font-size="22" text-anchor="start" fill="#374151">24</text><line x1="615" y1="375.7142857142857" x2="675" y2="375.7142857142857" stroke="#9aa4b2" stroke-width="18" stroke-linecap="round"/><text x="700" y="382.7142857142857" font-size="22" text-anchor="start" fill="#374151">23</text><line x1="615" y1="390.4761904761905" x2="675" y2="390.4761904761905" stroke="#9aa4b2" stroke-width="18" stroke-linecap="round"/><text x="700" y="397.4761904761905" font-size="22" text-anchor="start" fill="#374151">22</text><line x1="615" y1="405.23809523809524" x2="675" y2="405.23809523809524" stroke="#9aa4b2" stroke-width="18" stroke-linecap="round"/><text x="700" y="412.23809523809524" font-size="22" text-anchor="start" fill="#374151">21</text>
  <rect x="285" y="110" width="330" height="310" rx="28" fill="#20242c" stroke="#111827" stroke-width="4"/>
  <path d="M 420 110 A 30 30 0 0 0 480 110" fill="#f8fafc"/>
  <circle cx="331" cy="158" r="14" fill="#10b981"/>
  <text x="450" y="250" font-family="Arial, sans-serif" font-size="44" font-weight="700" text-anchor="middle" fill="white">PIC16F877A</text>
  <text x="450" y="294" font-family="Arial, sans-serif" font-size="26" text-anchor="middle" fill="#cbd5e1">DIP</text>
  <text x="450" y="366" font-family="Arial, sans-serif" font-size="22" text-anchor="middle" fill="#e5e7eb">Pin 1 starts at the dot</text>
  <line x1="331" y1="159" x2="245" y2="85" stroke="#10b981" stroke-width="5" stroke-linecap="round"/>
  <text x="238" y="82" font-family="Arial, sans-serif" font-size="20" font-weight="700" text-anchor="end" fill="#374151">Pin 1 marker</text>
  <rect x="160" y="445" width="580" height="42" rx="21" fill="#eef2ff"/>
  <text x="450" y="473" font-family="Arial, sans-serif" font-size="20" text-anchor="middle" fill="#3730a3">Beginner note: always check the datasheet before connecting an IC.</text>
</svg>